# xmcd CD database file
#
# Track frame offsets:
#	151
#	14733
#	29080
#	42882
#	53735
#	64759
#	76621
#	89659
#	101402
#	113475
#	127953
#	142726
#	156677
#	170218
#	182652
#	197325
#	209015
#	223319
#	238063
#	253346
#
# Disc length: 3576 seconds
#
# Revision: 1
# Processed by: cddbd v1.5.2PL0 Copyright (c) Steve Scherf et al.
# Submitted via: CDex 1.51
#
DISCID=280df614
DTITLE=Blind Willie McTell - King of the Georgia Blues Disc 1
DYEAR=1927
DGENRE=Blues
TTITLE0=Writin' Paper Blues
TTITLE1=Stole Rider Blues
TTITLE2=Mamma, Tain't Long 'Fo Day
TTITLE3=Mr McTell Got The Blues (1)
TTITLE4=Mr McTell Got The Blues (2)
TTITLE5=Three Women Blues
TTITLE6=Dark Night Blues
TTITLE7=Statesboro Blues
TTITLE8=Loving Talking Blues
TTITLE9=Atlanta Strut
TTITLE10=Travelin' Blues
TTITLE11=Come On Around To My House Mama
TTITLE12=Kind Mama
TTITLE13=Teasing Brown
TTITLE14=Drive Away Blues
TTITLE15=This Is Not The Stove To Brown Your Bread
TTITLE16=Love Changing Blues
TTITLE17=Talkin' To Myself
TTITLE18=Razor Ball
TTITLE19=Southern Can Is Mine
EXTD=YEAR: 1927
EXTT0=
EXTT1=
EXTT2=
EXTT3=
EXTT4=
EXTT5=
EXTT6=
EXTT7=
EXTT8=
EXTT9=
EXTT10=
EXTT11=
EXTT12=
EXTT13=
EXTT14=
EXTT15=
EXTT16=
EXTT17=
EXTT18=
EXTT19=
PLAYORDER=
